REM DIRINDEX 1\2,1\3,1\4,1\5
REM DIRNAME folder01,folder02,folder03,folder04,folder05
TITLE ""
FILE "1800_054.mp3" MP3
  TRACK 01 AUDIO
    TITLE "2:cjc044_1285"
    INDEX 01 00:00:00
  TRACK 02 AUDIO
    TITLE "0:"
    INDEX 01 00:00:74
  TRACK 03 AUDIO
    TITLE "3:cjc044_1286"
    INDEX 01 00:01:52
  TRACK 04 AUDIO
    TITLE "0:"
    INDEX 01 00:02:61
  TRACK 05 AUDIO
    TITLE "4:cjc044_1287"
    INDEX 01 00:03:39
  TRACK 06 AUDIO
    TITLE "0:"
    INDEX 01 00:04:46
  TRACK 07 AUDIO
    TITLE "5:cjc044_1288"
    INDEX 01 00:05:20
  TRACK 08 AUDIO
    TITLE "0:"
    INDEX 01 00:08:32
  TRACK 09 AUDIO
    TITLE "2:cjc044_1289"
    INDEX 01 00:10:18
  TRACK 10 AUDIO
    TITLE "0:"
    INDEX 01 00:11:25
  TRACK 11 AUDIO
    TITLE "3:cjc044_1290"
    INDEX 01 00:12:12
  TRACK 12 AUDIO
    TITLE "0:"
    INDEX 01 00:13:32
  TRACK 13 AUDIO
    TITLE "4:cjc044_1291"
    INDEX 01 00:14:17
  TRACK 14 AUDIO
    TITLE "0:"
    INDEX 01 00:15:23
  TRACK 15 AUDIO
    TITLE "5:cjc044_1292"
    INDEX 01 00:15:70
  TRACK 16 AUDIO
    TITLE "0:"
    INDEX 01 00:18:58
  TRACK 17 AUDIO
    TITLE "2:cjc044_1293"
    INDEX 01 00:20:43
  TRACK 18 AUDIO
    TITLE "0:"
    INDEX 01 00:21:58
  TRACK 19 AUDIO
    TITLE "3:cjc044_1294"
    INDEX 01 00:22:38
  TRACK 20 AUDIO
    TITLE "0:"
    INDEX 01 00:24:04
  TRACK 21 AUDIO
    TITLE "4:cjc044_1295"
    INDEX 01 00:24:63
  TRACK 22 AUDIO
    TITLE "0:"
    INDEX 01 00:26:01
  TRACK 23 AUDIO
    TITLE "5:cjc044_1296"
    INDEX 01 00:26:48
  TRACK 24 AUDIO
    TITLE "0:"
    INDEX 01 00:29:70
  TRACK 25 AUDIO
    TITLE "2:cjc044_1297"
    INDEX 01 00:31:55
  TRACK 26 AUDIO
    TITLE "0:"
    INDEX 01 00:32:64
  TRACK 27 AUDIO
    TITLE "3:cjc044_1298"
    INDEX 01 00:33:54
  TRACK 28 AUDIO
    TITLE "0:"
    INDEX 01 00:34:45
  TRACK 29 AUDIO
    TITLE "4:cjc044_1299"
    INDEX 01 00:35:23
  TRACK 30 AUDIO
    TITLE "0:"
    INDEX 01 00:36:36
  TRACK 31 AUDIO
    TITLE "5:cjc044_1300"
    INDEX 01 00:37:12
  TRACK 32 AUDIO
    TITLE "0:"
    INDEX 01 00:40:46
  TRACK 33 AUDIO
    TITLE "2:cjc044_1301"
    INDEX 01 00:42:35
  TRACK 34 AUDIO
    TITLE "0:"
    INDEX 01 00:43:44
  TRACK 35 AUDIO
    TITLE "3:cjc044_1302"
    INDEX 01 00:44:32
  TRACK 36 AUDIO
    TITLE "0:"
    INDEX 01 00:45:22
  TRACK 37 AUDIO
    TITLE "4:cjc044_1303"
    INDEX 01 00:46:11
  TRACK 38 AUDIO
    TITLE "0:"
    INDEX 01 00:47:19
  TRACK 39 AUDIO
    TITLE "5:cjc044_1304"
    INDEX 01 00:47:72
  TRACK 40 AUDIO
    TITLE "0:"
    INDEX 01 00:51:22
  TRACK 41 AUDIO
    TITLE "2:cjc044_1305"
    INDEX 01 00:53:11
  TRACK 42 AUDIO
    TITLE "0:"
    INDEX 01 00:54:19
  TRACK 43 AUDIO
    TITLE "3:cjc044_1306"
    INDEX 01 00:55:18
  TRACK 44 AUDIO
    TITLE "0:"
    INDEX 01 00:56:10
  TRACK 45 AUDIO
    TITLE "4:cjc044_1307"
    INDEX 01 00:56:71
  TRACK 46 AUDIO
    TITLE "0:"
    INDEX 01 00:58:01
  TRACK 47 AUDIO
    TITLE "5:cjc044_1308"
    INDEX 01 00:58:58
  TRACK 48 AUDIO
    TITLE "0:"
    INDEX 01 01:01:64
  TRACK 49 AUDIO
    TITLE "2:cjc044_1309"
    INDEX 01 01:03:51
  TRACK 50 AUDIO
    TITLE "0:"
    INDEX 01 01:04:64
  TRACK 51 AUDIO
    TITLE "3:cjc044_1310"
    INDEX 01 01:05:44
  TRACK 52 AUDIO
    TITLE "0:"
    INDEX 01 01:06:61
  TRACK 53 AUDIO
    TITLE "4:cjc044_1311"
    INDEX 01 01:07:47
  TRACK 54 AUDIO
    TITLE "0:"
    INDEX 01 01:08:62
  TRACK 55 AUDIO
    TITLE "5:cjc044_1312"
    INDEX 01 01:09:46
  TRACK 56 AUDIO
    TITLE "0:"
    INDEX 01 01:13:73
  TRACK 57 AUDIO
    TITLE "2:cjc044_1313"
    INDEX 01 01:15:56
  TRACK 58 AUDIO
    TITLE "0:"
    INDEX 01 01:16:61
  TRACK 59 AUDIO
    TITLE "3:cjc044_1314"
    INDEX 01 01:17:49
  TRACK 60 AUDIO
    TITLE "0:"
    INDEX 01 01:18:43
  TRACK 61 AUDIO
    TITLE "4:cjc044_1315"
    INDEX 01 01:19:27
  TRACK 62 AUDIO
    TITLE "0:"
    INDEX 01 01:20:28
  TRACK 63 AUDIO
    TITLE "5:cjc044_1316"
    INDEX 01 01:21:00
  TRACK 64 AUDIO
    TITLE "0:"
    INDEX 01 01:24:34
